<svg width="61" height="64" viewBox="0 0 61 64" fill="none" xmlns="http://www.w3.org/2000/svg">
<mask id="path-1-outside-1_82_33" maskUnits="userSpaceOnUse" x="0" y="0" width="61" height="64" fill="black">
<rect fill="white" width="61" height="64"/>
<path fill-rule="evenodd" clip-rule="evenodd" d="M34.7622 19.2576L30.7795 7L26.6406 19.7381L15.6299 12.1122L19.8884 24.2768H7.00005L17.8357 32.1494L7.18055 40.2646L20.0657 39.9736L16.083 52.2312L26.9186 44.3586L31.3441 57L35.049 44.6556L45.476 52.2312L41.3371 39.4931L54.7273 39.1906L44.132 31.8524L54.5589 24.2768H41.1653L45.0154 11.4485L34.7622 19.2576Z"/>
</mask>
<path fill-rule="evenodd" clip-rule="evenodd" d="M34.7622 19.2576L30.7795 7L26.6406 19.7381L15.6299 12.1122L19.8884 24.2768H7.00005L17.8357 32.1494L7.18055 40.2646L20.0657 39.9736L16.083 52.2312L26.9186 44.3586L31.3441 57L35.049 44.6556L45.476 52.2312L41.3371 39.4931L54.7273 39.1906L44.132 31.8524L54.5589 24.2768H41.1653L45.0154 11.4485L34.7622 19.2576Z" fill="#D9D9D9"/>
<path d="M30.7795 7L32.6816 6.38197L30.7795 0.527865L28.8774 6.38197L30.7795 7ZM34.7622 19.2576L32.8601 19.8756L33.7313 22.5568L35.974 20.8487L34.7622 19.2576ZM26.6406 19.7381L25.5019 21.3823L27.712 22.913L28.5427 20.3562L26.6406 19.7381ZM15.6299 12.1122L16.7686 10.4681L11.7084 6.96341L13.7422 12.7731L15.6299 12.1122ZM19.8884 24.2768V26.2768H22.7076L21.7761 23.6159L19.8884 24.2768ZM7.00005 24.2768V22.2768H0.844679L5.82447 25.8948L7.00005 24.2768ZM17.8357 32.1494L19.0475 33.7404L21.1862 32.1115L19.0113 30.5313L17.8357 32.1494ZM7.18055 40.2646L5.96874 38.6736L1.07192 42.4031L7.22572 42.2641L7.18055 40.2646ZM20.0657 39.9736L21.9678 40.5916L22.839 37.9104L20.0206 37.9741L20.0657 39.9736ZM16.083 52.2312L14.1809 51.6132L12.2788 57.4673L17.2586 53.8492L16.083 52.2312ZM26.9186 44.3586L28.8063 43.6978L27.918 41.1604L25.7431 42.7406L26.9186 44.3586ZM31.3441 57L29.4564 57.6608L31.4903 63.4705L33.2597 57.5749L31.3441 57ZM35.049 44.6556L36.2246 43.0375L33.9438 41.3805L33.1334 44.0806L35.049 44.6556ZM45.476 52.2312L44.3004 53.8492L49.2802 57.4673L47.3781 51.6132L45.476 52.2312ZM41.3371 39.4931L41.292 37.4936L38.6043 37.5543L39.435 40.1111L41.3371 39.4931ZM54.7273 39.1906L54.7725 41.1901L60.9263 41.0511L55.8661 37.5465L54.7273 39.1906ZM44.132 31.8524L42.9564 30.2344L40.6756 31.8915L42.9932 33.4966L44.132 31.8524ZM54.5589 24.2768L55.7345 25.8948L60.7143 22.2768H54.5589V24.2768ZM41.1653 24.2768L39.2497 23.7019L38.4769 26.2768H41.1653V24.2768ZM45.0154 11.4485L46.931 12.0234L48.7004 6.12782L43.8036 9.85739L45.0154 11.4485ZM28.8774 7.61803L32.8601 19.8756L36.6643 18.6396L32.6816 6.38197L28.8774 7.61803ZM28.5427 20.3562L32.6816 7.61803L28.8774 6.38197L24.7385 19.1201L28.5427 20.3562ZM14.4912 13.7564L25.5019 21.3823L27.7794 18.094L16.7686 10.4681L14.4912 13.7564ZM21.7761 23.6159L17.5176 11.4514L13.7422 12.7731L18.0008 24.9376L21.7761 23.6159ZM7.00005 26.2768H19.8884V22.2768H7.00005V26.2768ZM19.0113 30.5313L8.17562 22.6587L5.82447 25.8948L16.6601 33.7674L19.0113 30.5313ZM8.39236 41.8557L19.0475 33.7404L16.6239 30.5583L5.96874 38.6736L8.39236 41.8557ZM20.0206 37.9741L7.13539 38.2652L7.22572 42.2641L20.1109 41.9731L20.0206 37.9741ZM17.9851 52.8492L21.9678 40.5916L18.1636 39.3556L14.1809 51.6132L17.9851 52.8492ZM25.7431 42.7406L14.9074 50.6132L17.2586 53.8492L28.0942 45.9767L25.7431 42.7406ZM33.2318 56.3392L28.8063 43.6978L25.031 45.0195L29.4564 57.6608L33.2318 56.3392ZM33.1334 44.0806L29.4285 56.4251L33.2597 57.5749L36.9646 45.2305L33.1334 44.0806ZM46.6516 50.6132L36.2246 43.0375L33.8734 46.2736L44.3004 53.8492L46.6516 50.6132ZM39.435 40.1111L43.5739 52.8492L47.3781 51.6132L43.2393 38.8751L39.435 40.1111ZM54.6822 37.1911L41.292 37.4936L41.3823 41.4926L54.7725 41.1901L54.6822 37.1911ZM42.9932 33.4966L53.5886 40.8348L55.8661 37.5465L45.2707 30.2083L42.9932 33.4966ZM53.3834 22.6587L42.9564 30.2344L45.3075 33.4705L55.7345 25.8948L53.3834 22.6587ZM41.1653 26.2768H54.5589V22.2768H41.1653V26.2768ZM43.0998 10.8735L39.2497 23.7019L43.0809 24.8517L46.931 12.0234L43.0998 10.8735ZM35.974 20.8487L46.2272 13.0395L43.8036 9.85739L33.5504 17.6665L35.974 20.8487Z" fill="#2F2F2F" mask="url(#path-1-outside-1_82_33)"/>
<mask id="path-3-outside-2_82_33" maskUnits="userSpaceOnUse" x="7.37842" y="5.92538" width="49.0543" height="51.0112" fill="black">
<rect fill="white" x="7.37842" y="5.92538" width="49.0543" height="51.0112"/>
<path fill-rule="evenodd" clip-rule="evenodd" d="M28.6005 20.748L32.1969 10.4325L35.4743 21.3019L44.9428 15.0383L41.1144 25.27L52.0364 25.5028L42.7118 31.9786L51.5947 39.0481L40.6807 38.5688L43.8345 49.0282L34.7941 42.1611L30.8156 52.7939L27.8988 42.2659L18.9259 48.4975L22.6633 37.7775L11.3215 37.2794L20.4328 31.2521L11.7335 24.644L23.0837 24.8858L20.0526 13.9451L28.6005 20.748Z"/>
</mask>
<path d="M32.1969 10.4325L31.2527 10.1033L32.2659 7.19712L33.1543 10.1438L32.1969 10.4325ZM28.6005 20.748L29.5447 21.0772L29.0807 22.4082L27.9778 21.5305L28.6005 20.748ZM35.4743 21.3019L36.026 22.1359L34.9049 22.8775L34.5169 21.5906L35.4743 21.3019ZM44.9428 15.0383L44.3911 14.2042L46.958 12.5062L45.8794 15.3887L44.9428 15.0383ZM41.1144 25.27L41.0931 26.2698L39.6838 26.2398L40.1778 24.9196L41.1144 25.27ZM52.0364 25.5028L52.0577 24.503L55.1347 24.5685L52.6068 26.3241L52.0364 25.5028ZM42.7118 31.9786L42.0891 32.761L41.0373 31.924L42.1414 31.1572L42.7118 31.9786ZM51.5947 39.0481L52.2175 38.2657L54.6256 40.1822L51.5509 40.0471L51.5947 39.0481ZM40.6807 38.5688L39.7233 38.8575L39.3163 37.5079L40.7246 37.5697L40.6807 38.5688ZM43.8345 49.0282L44.7919 48.7395L45.6804 51.6862L43.2296 49.8245L43.8345 49.0282ZM34.7941 42.1611L33.8575 41.8106L34.3286 40.5517L35.399 41.3648L34.7941 42.1611ZM30.8156 52.7939L31.7522 53.1443L30.6736 56.0268L29.8519 53.0609L30.8156 52.7939ZM27.8988 42.2659L27.3284 41.4446L28.4862 40.6405L28.8625 41.9989L27.8988 42.2659ZM18.9259 48.4975L19.4963 49.3188L16.9684 51.0744L17.9816 48.1683L18.9259 48.4975ZM22.6633 37.7775L22.7072 36.7785L24.0501 36.8374L23.6076 38.1067L22.6633 37.7775ZM11.3215 37.2794L11.2776 38.2784L8.20287 38.1434L10.7697 36.4454L11.3215 37.2794ZM20.4328 31.2521L21.0377 30.4558L22.1602 31.3084L20.9845 32.0861L20.4328 31.2521ZM11.7335 24.644L11.1286 25.4403L8.67779 23.5786L11.7548 23.6442L11.7335 24.644ZM23.0837 24.8858L24.0474 24.6188L24.4063 25.9142L23.0624 25.8856L23.0837 24.8858ZM20.0526 13.9451L19.0889 14.2121L18.2672 11.2462L20.6753 13.1627L20.0526 13.9451ZM33.1412 10.7617L29.5447 21.0772L27.6562 20.4188L31.2527 10.1033L33.1412 10.7617ZM34.5169 21.5906L31.2395 10.7211L33.1543 10.1438L36.4317 21.0132L34.5169 21.5906ZM45.4946 15.8723L36.026 22.1359L34.9226 20.4678L44.3911 14.2042L45.4946 15.8723ZM40.1778 24.9196L44.0063 14.6878L45.8794 15.3887L42.0509 25.6205L40.1778 24.9196ZM52.0151 26.5025L41.0931 26.2698L41.1357 24.2702L52.0577 24.503L52.0151 26.5025ZM42.1414 31.1572L51.466 24.6814L52.6068 26.3241L43.2822 32.7999L42.1414 31.1572ZM50.972 39.8305L42.0891 32.761L43.3345 31.1961L52.2175 38.2657L50.972 39.8305ZM40.7246 37.5697L51.6386 38.0491L51.5509 40.0471L40.6368 39.5678L40.7246 37.5697ZM42.877 49.3169L39.7233 38.8575L41.6381 38.2801L44.7919 48.7395L42.877 49.3169ZM35.399 41.3648L44.4394 48.2319L43.2296 49.8245L34.1892 42.9574L35.399 41.3648ZM29.879 52.4434L33.8575 41.8106L35.7307 42.5115L31.7522 53.1443L29.879 52.4434ZM28.8625 41.9989L31.7793 52.5269L29.8519 53.0609L26.9351 42.5329L28.8625 41.9989ZM18.3555 47.6761L27.3284 41.4446L28.4692 43.0873L19.4963 49.3188L18.3555 47.6761ZM23.6076 38.1067L19.8701 48.8267L17.9816 48.1683L21.719 37.4483L23.6076 38.1067ZM11.3653 36.2804L22.7072 36.7785L22.6194 38.7765L11.2776 38.2784L11.3653 36.2804ZM20.9845 32.0861L11.8732 38.1134L10.7697 36.4454L19.8811 30.4181L20.9845 32.0861ZM12.3384 23.8477L21.0377 30.4558L19.8279 32.0484L11.1286 25.4403L12.3384 23.8477ZM23.0624 25.8856L11.7122 25.6437L11.7548 23.6442L23.105 23.8861L23.0624 25.8856ZM21.0163 13.6782L24.0474 24.6188L22.12 25.1528L19.0889 14.2121L21.0163 13.6782ZM27.9778 21.5305L19.4299 14.7276L20.6753 13.1627L29.2232 19.9656L27.9778 21.5305Z" fill="#45FF51" mask="url(#path-3-outside-2_82_33)"/>
</svg>
